<svg xmlns="http://www.w3.org/2000/svg" viewBox="0 0 512.9 121.46"><title>Asset 4</title><g id="Layer_2" data-name="Layer 2"><g id="Simple_Logo" data-name="Simple Logo"><path d="M510.07,68c-2.75-2.76-16-2.76-16-2.76-1.1-2.75-9.36-3.85-9.36-3.85C483.08,59.21,472.89,54,472.89,54c-2.2-15.42-27.54-22-27.54-22L437.09,0S414.5,23.14,414,23.69l-6.33.27c-3.86-1.1-6.06-8.26-6.06-8.26-2.2,1.1,3.3,9.36,3.3,9.36L395,18.45l1.1,4.41-7.16-2.2,7.16,4.4-12.12,2.21c-20.93-.55-25.89,3.85-34.7,5.5s-16.53,9.92-16.53,9.92c7.72-4.41,19.83-5.51,19.83-5.51s-30.84,14.87-46.82,23.69-33.6,9.36-41.31,9.36-11-1.1-17.63-5-20.93-9.91-20.93-9.91c0,1.07,3.94,3.77,6.71,5.53-3.49-1.77-8.91-3.88-8.91-3.88l8.81,6.06S220.33,57,213.17,53.16s-31.39-12.67-50.12-11A114.18,114.18,0,0,0,128.9,50.4c-2.76,1.1-27,7.71-27,7.71,3.86,1.66,16.53-1.65,16.53-1.65-2.2,1.65-18.18,7.16-18.18,7.16,5,1.1,18.18-2.2,17.08-1.65S81.52,72.43,77.67,73.54s-27,4.4-30.85,3.85-11.57-7.71-22-11S2.2,64.17,2.2,64.17c13.22,1.65,14.33,5,14.33,5C5.51,66.38,0,68.58,0,68.58,13.22,68.58,17.63,73,17.63,73,6.61,70.23,0,74.64,0,74.64c9.92-.55,16,2.75,16,2.75C8.81,75.74,0,80.15,0,80.15a28.79,28.79,0,0,1,18.18,2.2C10.47,80.7,0,87.86,0,87.86c17.63-3.31,38,1.1,46.27,5s17.63,2.2,32.5,1.1,30.3-7.16,30.3-7.16l-3.86,4.4h5.51L108,95.57S133.3,79,143.77,74.64s27.54-2.21,35.25-1.1S198.3,84,204.91,87.86s20.93,9.91,20.93,9.91C222,99.43,205.46,95,205.46,95c.55,2.75,11,5,11,5-.55,2.2-13.22,0-13.22,0,6.61,7.16,33.05,6.61,33.05,6.61s8.81,5,16.52,6.06,20.94,8.81,38,8.81a138,138,0,0,0,38.56-6.06c5-1.65,10.47-3.3,10.47-3.3l-4.41,5.5c9.91,0,23.13-11.56,23.13-11.56-6.06,6.61-16,13.22-16,13.22,8.81-2.21,31.95-18.73,42.41-24.79a21.45,21.45,0,0,1,19.83-1.1,12,12,0,0,0,.55,7.71s-3.85,6.06.56.55A19.64,19.64,0,0,1,417,95c-3.85,3.85-1.1,7.16-1.1,7.16,6.06-6.06,10.47-6.06,26.44-4.41s17.08,9.92,27.54,9.37,9.92-10.47,9.92-11.57-11-4.41-15.43-6.61-6.05-5.51,5-8.26,18.18,6.61,18.18,6.61c.55,3.85-6.06,6.06-6.06,6.06,6.61,0,14.87-3.31,14.87-3.31s0-2.75,9.92-9.36S512.83,70.78,510.07,68ZM456.92,48.47s7.16-2.2,11,7.16C467.93,55.63,459.12,56.74,456.92,48.47Z"/></g></g></svg>