<svg xmlns="http://www.w3.org/2000/svg" viewBox="0 0 499.32 106.96"><title>text</title><g id="Layer_2" data-name="Layer 2"><g id="Text_Under"><path d="M172.73,100.61a3.65,3.65,0,0,1-3.21,1.92,3.9,3.9,0,0,1-2.85-1.06,3.81,3.81,0,0,1-1.08-2.85,4.63,4.63,0,0,1,1.26-3.35,4.42,4.42,0,0,1,3.31-1.3,3.59,3.59,0,0,1,1.52.34,1.29,1.29,0,0,1,.88,1.15.69.69,0,0,1-.78.78c-.28,0-.6-.26-1-.76a1.71,1.71,0,0,0-1.18-.77,2.11,2.11,0,0,0-1.89,1,3.57,3.57,0,0,0-.56,2.1,4,4,0,0,0,.76,2.45,2.66,2.66,0,0,0,2.23,1.1,3,3,0,0,0,1.66-.56c.54-.36.78-.56.7-.56s.1.06.16.14a.45.45,0,0,1,.1.2A.17.17,0,0,1,172.73,100.61Z"/><path d="M183.67,102.27c0,.08-.12.1-.26.1a9.49,9.49,0,0,1-1,0q-.63-.06-1-.06c-.22,0-.56,0-1,.06s-.76,0-1,0-.24-.08-.24-.26a.71.71,0,0,0,0-.12.71.71,0,0,1,0-.12c0-.12.08-.2.28-.26l.44-.08c.42-.12.65-.48.65-1.12v-4a1.23,1.23,0,0,0-1.41-1.35,3.86,3.86,0,0,0-2.4,1.09v4.27a1.27,1.27,0,0,0,.18.8,1.37,1.37,0,0,0,.78.3.48.48,0,0,1,.44.54c0,.18-.08.26-.24.26s-.56,0-1,0-.77-.06-1-.06-.56,0-1,.06-.78,0-1,0-.22-.08-.22-.26V102a.71.71,0,0,1,0-.12c0-.12.1-.22.3-.26l.44-.08c.44-.12.66-.48.66-1.12V90.76c0-.56-.12-.92-.4-1.08l-.32-.12c-.24-.08-.36-.2-.36-.32l.06-.18a.29.29,0,0,1,.18-.16,22.26,22.26,0,0,1,2.33-1c.1,0,.16,0,.16.16V95.4A5.33,5.33,0,0,1,180.08,94c1.47,0,2.21.76,2.21,2.29v4.17a1.12,1.12,0,0,0,.22.8,1.68,1.68,0,0,0,.76.34,1.51,1.51,0,0,1,.4.16.51.51,0,0,1,0,.22A3,3,0,0,1,183.67,102.27Z"/><path d="M192.42,101.17c-.4.92-.93,1.4-1.61,1.4a1.36,1.36,0,0,1-1-.46,1.9,1.9,0,0,1-.46-1.06,4,4,0,0,1-3,1.48,1.22,1.22,0,0,1-1.06-.82,2.84,2.84,0,0,1-.38-1.4c0-.38.32-.72,1-1.07l1.48-.62c.3-.12,1-.34,1.95-.66V96.82c0-1.08-.52-1.63-1.55-1.63s-1.48.31-1.48.87a.9.9,0,0,0,0,.16.69.69,0,0,1,0,.18c0,.08-.16.22-.46.4a1.54,1.54,0,0,1-.6.26c-.18,0-.28-.14-.28-.4a1.76,1.76,0,0,1,1.08-1.47L188.23,94a3,3,0,0,1,2.08.62,2.76,2.76,0,0,1,.62,2v3.69c0,.66.2,1,.56,1a.86.86,0,0,0,.46-.22,1.44,1.44,0,0,1,.31-.2c.12,0,.2,0,.2.14A.64.64,0,0,0,192.42,101.17Zm-3.11-2.69c-1.85.72-2.77,1.29-2.77,1.71a1.58,1.58,0,0,0,.24.76c.18.32.38.48.58.48a2.58,2.58,0,0,0,1.95-1.16Z"/><path d="M199.27,95.9a1.34,1.34,0,0,1-.58-.18,1.46,1.46,0,0,0-.56-.2c-.64,0-1.28.46-1.94,1.36v3.61c0,.52.16.84.46.94l.64.18.28.2a.41.41,0,0,1,.1.3c0,.18-.08.26-.26.26s-.56,0-1,0-.77-.06-1-.06-.58,0-1,.06-.8,0-1,0-.2-.08-.2-.26V102a.71.71,0,0,1,0-.12c0-.12.1-.22.28-.26l.44-.08c.42-.12.64-.48.64-1.1V96.8q0-.84-.42-1.08l-.32-.1c-.24-.1-.34-.22-.34-.35s0-.1,0-.16.08-.1.18-.16c1.46-.68,2.27-1,2.35-1s.14.06.14.18V96c1.06-1.37,2-2,2.9-2a1.13,1.13,0,0,1,.76.28.86.86,0,0,1,.35.7C200.2,95.6,199.89,95.9,199.27,95.9Z"/><path d="M205.09,102.37c-.22,0-.56,0-1,0s-.75-.06-1-.06-.54,0-1,.06-.76,0-1,0-.26-.08-.26-.26V102a.71.71,0,0,1,0-.12c0-.14.1-.22.34-.26a1.93,1.93,0,0,0,.66-.18,1.09,1.09,0,0,0,.36-.94V96.8c0-.56-.12-.92-.4-1.08a2.14,2.14,0,0,1-.32-.1c-.24-.1-.36-.22-.36-.35l.06-.16c0-.06.08-.1.18-.16,1.46-.68,2.23-1,2.33-1s.16.06.16.18v6.34a1,1,0,0,0,.22.8,1.8,1.8,0,0,0,.76.34,1.42,1.42,0,0,1,.38.16,1.64,1.64,0,0,1,0,.44C205.35,102.31,205.27,102.37,205.09,102.37Zm-1.18-10.74a1.11,1.11,0,0,1-.81.36,1.08,1.08,0,0,1-.82-.36,1.21,1.21,0,0,1-.34-.83,1.17,1.17,0,0,1,.34-.82,1.08,1.08,0,0,1,.82-.36,1.11,1.11,0,0,1,.81.36,1.13,1.13,0,0,1,.34.82A1.17,1.17,0,0,1,203.91,91.63Z"/><path d="M210.9,102.05a3,3,0,0,1-1.54.48c-1.34,0-2-.74-2-2.2V95.72a.61.61,0,0,0-.37-.65,2.34,2.34,0,0,0-.66-.1c-.22,0-.36-.08-.36-.2a.46.46,0,0,1,.2-.38c.8-.52,1.53-1,2.15-1.52a5,5,0,0,1,.54-.42.11.11,0,0,1,.12.12v1.68h2.57q.12,0,.12.36t-.12.36H209v5.12c0,.86.38,1.3,1.14,1.3a1.69,1.69,0,0,0,1-.4l.51-.4a.19.19,0,0,1,.22.22C211.83,101.27,211.51,101.69,210.9,102.05Z"/><path d="M222.17,94.89l-.62,0q-.51,0-1.74,2.67l-3.27,6.88c-.78,1.66-1.58,2.48-2.43,2.48-.68,0-1-.28-1-.86a.72.72,0,0,1,.8-.82,1.93,1.93,0,0,1,.4.06,1.81,1.81,0,0,0,.42,0c.33,0,.77-.48,1.29-1.42.32-.65.62-1.27.94-1.89l-2.57-6a2,2,0,0,0-.82-1,4.74,4.74,0,0,0-.74-.18.36.36,0,0,1-.32-.38v-.14c0-.16.08-.24.22-.24s.56,0,1,.06.8.06,1,.06.59,0,1.05-.06.82-.06,1-.06.2.08.2.28,0,.36-.08.42a1.57,1.57,0,0,1-.6.1q-.54,0-.54.3a19,19,0,0,0,.9,2.39l1.06,2.63L219.83,96a1.81,1.81,0,0,0,.2-.69c0-.22-.16-.32-.5-.36a2,2,0,0,1-.59-.12.75.75,0,0,1-.08-.4c0-.2.08-.28.25-.28a7.21,7.21,0,0,1,.78.06,6.92,6.92,0,0,0,.76.06,7.89,7.89,0,0,0,.8-.06,8.19,8.19,0,0,1,.82-.06c.12,0,.18.08.18.28S222.35,94.87,222.17,94.89Z"/><path d="M236.55,101.29a4.56,4.56,0,0,1-3.21,1.24,4.23,4.23,0,0,1-3-1.2,4,4,0,0,1-1.25-3,4.08,4.08,0,0,1,1.33-3.11A4.51,4.51,0,0,1,233.56,94a4.3,4.3,0,0,1,3.07,1.22,4,4,0,0,1,1.26,3A4.11,4.11,0,0,1,236.55,101.29Zm-1-5.29a2.4,2.4,0,0,0-2.17-1.33,2.2,2.2,0,0,0-2,1,4,4,0,0,0-.6,2.26,4.89,4.89,0,0,0,.66,2.55,2.44,2.44,0,0,0,2.16,1.3,2.26,2.26,0,0,0,2-1,4,4,0,0,0,.6-2.23A4.88,4.88,0,0,0,235.51,96Z"/><path d="M245.59,95.9a1.34,1.34,0,0,1-.58-.18,1.46,1.46,0,0,0-.56-.2c-.64,0-1.28.46-1.94,1.36v3.61c0,.52.16.84.46.94l.64.18.28.2a.41.41,0,0,1,.1.3c0,.18-.08.26-.26.26s-.56,0-1,0-.76-.06-1-.06-.58,0-1,.06-.8,0-1,0-.2-.08-.2-.26V102a.71.71,0,0,1,0-.12c0-.12.1-.22.28-.26l.44-.08c.42-.12.64-.48.64-1.1V96.8q0-.84-.42-1.08l-.32-.1c-.24-.1-.34-.22-.34-.35s0-.1,0-.16.08-.1.18-.16c1.46-.68,2.27-1,2.35-1s.14.06.14.18V96c1.06-1.37,2-2,2.9-2a1.16,1.16,0,0,1,.77.28.88.88,0,0,1,.34.7C246.52,95.6,246.22,95.9,245.59,95.9Z"/><path d="M255.6,95.56h-1.54a2,2,0,0,1,.2.94,2.65,2.65,0,0,1-1,2.18,3.72,3.72,0,0,1-2.34.8h-.16a2.12,2.12,0,0,0-.8.31,1,1,0,0,0-.63.82q0,.72,1.59.72h1.42a4.5,4.5,0,0,1,2.57.6,2,2,0,0,1,.86,1.77,2.75,2.75,0,0,1-1.54,2.48,6,6,0,0,1-3,.76q-3.74,0-3.73-2.4c0-.24.3-.54.88-.92l1.21-.73c-1.23-.22-1.83-.84-1.83-1.88q0-.27.78-.9c.36-.26.68-.52,1.05-.79a3.14,3.14,0,0,1-1.41-.94,2.36,2.36,0,0,1-.6-1.58,2.46,2.46,0,0,1,1.1-2.09A3.9,3.9,0,0,1,251,94a3.66,3.66,0,0,1,2.38.78h2.25c.1,0,.16.12.16.38S255.7,95.56,255.6,95.56ZM251.93,103a5.81,5.81,0,0,0-1.64.12c-.85.39-1.27.91-1.27,1.55a1.47,1.47,0,0,0,.93,1.3,3.48,3.48,0,0,0,1.64.38,3.19,3.19,0,0,0,1.72-.44,1.64,1.64,0,0,0,.85-1.46C254.16,103.44,253.41,103,251.93,103Zm.28-7.45a1.59,1.59,0,0,0-1.4-.83,1.67,1.67,0,0,0-1.21.46,1.7,1.7,0,0,0-.44,1.23,3,3,0,0,0,.43,1.62,1.57,1.57,0,0,0,1.38.8,1.55,1.55,0,0,0,1.66-1.64A3.13,3.13,0,0,0,252.21,95.5Z"/><path d="M264,101.17c-.4.92-.92,1.4-1.6,1.4a1.36,1.36,0,0,1-1-.46,2,2,0,0,1-.47-1.06,4,4,0,0,1-3,1.48,1.22,1.22,0,0,1-1.06-.82,2.75,2.75,0,0,1-.39-1.4c0-.38.32-.72,1-1.07l1.48-.62c.3-.12,1-.34,1.94-.66V96.82c0-1.08-.52-1.63-1.54-1.63s-1.48.31-1.48.87a.9.9,0,0,0,0,.16.69.69,0,0,1,0,.18c0,.08-.16.22-.46.4a1.6,1.6,0,0,1-.6.26c-.19,0-.29-.14-.29-.4a1.77,1.77,0,0,1,1.09-1.47L259.83,94a3,3,0,0,1,2.09.62,2.76,2.76,0,0,1,.62,2v3.69c0,.66.2,1,.56,1a.86.86,0,0,0,.46-.22,1.27,1.27,0,0,1,.3-.2c.12,0,.2,0,.2.14A.64.64,0,0,0,264,101.17Zm-3.11-2.69q-2.76,1.08-2.76,1.71a1.58,1.58,0,0,0,.24.76c.18.32.38.48.58.48a2.56,2.56,0,0,0,1.94-1.16Z"/><path d="M274.25,102.37c-.22,0-.54,0-1,0s-.77-.06-1-.06-.56,0-1,.06-.78,0-1,0-.26-.08-.24-.26l0-.24c0-.12.12-.2.32-.26l.44-.08c.42-.12.64-.48.64-1.12v-4c0-.88-.48-1.33-1.4-1.33a3.79,3.79,0,0,0-2.39,1.09v4.27c0,.56.16.88.46,1l.63.16a.86.86,0,0,1,.3.58c0,.12-.08.18-.25.18s-.56,0-1,0-.74-.06-1-.06-.56,0-1,.06-.76,0-1,0-.25-.08-.25-.26V102a.71.71,0,0,1,0-.12c0-.12.11-.22.31-.26l.44-.08c.4-.12.62-.48.62-1.12V96.8c0-.56-.12-.92-.4-1.08a2.14,2.14,0,0,1-.32-.1c-.24-.1-.36-.22-.36-.35l.06-.16c0-.06.08-.1.18-.16,1.46-.68,2.22-1,2.32-1s.16.06.16.18v1.33A5.25,5.25,0,0,1,271,94c1.4,0,2.09.72,2.09,2.17v4.29a1.78,1.78,0,0,0,.16.9.85.85,0,0,0,.7.28c.32,0,.5.08.52.12a1.21,1.21,0,0,1,0,.3C274.51,102.27,274.41,102.37,274.25,102.37Z"/><path d="M279.68,102.37c-.22,0-.56,0-1,0s-.74-.06-1-.06-.54,0-1,.06-.77,0-1,0-.26-.08-.26-.26V102a.71.71,0,0,1,0-.12c0-.14.1-.22.34-.26a2,2,0,0,0,.67-.18,1.09,1.09,0,0,0,.36-.94V96.8c0-.56-.12-.92-.4-1.08a2.14,2.14,0,0,1-.32-.1c-.25-.1-.37-.22-.37-.35l.06-.16c0-.06.08-.1.19-.16,1.46-.68,2.22-1,2.32-1s.16.06.16.18v6.34a1,1,0,0,0,.22.8,1.8,1.8,0,0,0,.76.34,1.42,1.42,0,0,1,.38.16,1.64,1.64,0,0,1,0,.44C279.94,102.31,279.86,102.37,279.68,102.37ZM278.5,91.63a1.11,1.11,0,0,1-.8.36,1.08,1.08,0,0,1-.82-.36,1.21,1.21,0,0,1-.34-.83,1.17,1.17,0,0,1,.34-.82,1.08,1.08,0,0,1,.82-.36,1.11,1.11,0,0,1,.8.36,1.13,1.13,0,0,1,.34.82A1.17,1.17,0,0,1,278.5,91.63Z"/><path d="M288.45,102.09c-.06.14-.14.2-.24.2a.6.6,0,0,1-.24,0,4.47,4.47,0,0,1-.47,0,4.4,4.4,0,0,0-.46,0h-4l-.74,0c-.34,0-.6,0-.76,0a1.11,1.11,0,0,1-.38,0c-.16,0-.22-.08-.22-.2a.69.69,0,0,1,.18-.34L286.22,95h-2.28a2.8,2.8,0,0,0-1.27.26,2.67,2.67,0,0,0-.82.79c-.08.12-.16.2-.22.2-.34,0-.5-.1-.5-.3a.15.15,0,0,1,0-.08,17.73,17.73,0,0,0,.62-2,.51.51,0,0,1,0-.14.48.48,0,0,1,.6.18.58.58,0,0,0,.32.3,4.71,4.71,0,0,0,1.06.06h4.38c.18,0,.26,0,.26.16a.73.73,0,0,1-.16.4l-5.08,6.72h3.15a2.06,2.06,0,0,0,1.26-.4,3.66,3.66,0,0,0,.75-.8,2.64,2.64,0,0,1,.36-.42c.26,0,.4.06.4.18A9.56,9.56,0,0,1,288.45,102.09Z"/><path d="M297.71,101.17c-.4.92-.92,1.4-1.6,1.4a1.4,1.4,0,0,1-1.05-.46,1.9,1.9,0,0,1-.46-1.06,4,4,0,0,1-3,1.48,1.22,1.22,0,0,1-1.07-.82,2.84,2.84,0,0,1-.38-1.4c0-.38.32-.72,1-1.07.51-.2,1-.42,1.49-.62.3-.12,1-.34,1.94-.66V96.82c0-1.08-.52-1.63-1.54-1.63s-1.48.31-1.48.87a.9.9,0,0,0,0,.16.69.69,0,0,1,0,.18c0,.08-.16.22-.47.4a1.54,1.54,0,0,1-.6.26c-.18,0-.28-.14-.28-.4a1.76,1.76,0,0,1,1.08-1.47L293.52,94a3,3,0,0,1,2.09.62,2.76,2.76,0,0,1,.62,2v3.69c0,.66.2,1,.56,1a.86.86,0,0,0,.46-.22,1.27,1.27,0,0,1,.3-.2c.12,0,.2,0,.2.14A.64.64,0,0,0,297.71,101.17Zm-3.11-2.69q-2.76,1.08-2.76,1.71a1.58,1.58,0,0,0,.24.76c.18.32.38.48.58.48a2.56,2.56,0,0,0,1.94-1.16Z"/><path d="M302.9,102.05a3,3,0,0,1-1.54.48c-1.34,0-2-.74-2-2.2V95.72a.61.61,0,0,0-.37-.65,2.34,2.34,0,0,0-.66-.1c-.22,0-.36-.08-.36-.2a.46.46,0,0,1,.2-.38c.8-.52,1.53-1,2.15-1.52a5,5,0,0,1,.54-.42.11.11,0,0,1,.12.12v1.68h2.57q.12,0,.12.36t-.12.36H301v5.12c0,.86.38,1.3,1.14,1.3a1.69,1.69,0,0,0,1-.4l.51-.4a.19.19,0,0,1,.22.22C303.83,101.27,303.51,101.69,302.9,102.05Z"/><path d="M309,102.37c-.22,0-.56,0-1,0s-.74-.06-1-.06-.55,0-1,.06-.76,0-1,0-.26-.08-.26-.26V102a.71.71,0,0,1,0-.12c0-.14.1-.22.34-.26a1.93,1.93,0,0,0,.66-.18,1.09,1.09,0,0,0,.36-.94V96.8c0-.56-.12-.92-.4-1.08a2.14,2.14,0,0,1-.32-.1c-.24-.1-.36-.22-.36-.35l.06-.16c0-.06.08-.1.18-.16,1.46-.68,2.23-1,2.33-1s.16.06.16.18v6.34a1,1,0,0,0,.22.8,1.8,1.8,0,0,0,.76.34,1.42,1.42,0,0,1,.38.16,1.64,1.64,0,0,1,0,.44C309.28,102.31,309.2,102.37,309,102.37Zm-1.18-10.74a1.11,1.11,0,0,1-.8.36,1.08,1.08,0,0,1-.83-.36,1.21,1.21,0,0,1-.34-.83,1.17,1.17,0,0,1,.34-.82,1.08,1.08,0,0,1,.83-.36,1.11,1.11,0,0,1,.8.36,1.13,1.13,0,0,1,.34.82A1.17,1.17,0,0,1,307.84,91.63Z"/><path d="M318,101.29a4.56,4.56,0,0,1-3.2,1.24,4.23,4.23,0,0,1-3.05-1.2,4,4,0,0,1-1.25-3,4.11,4.11,0,0,1,1.33-3.11A4.51,4.51,0,0,1,315,94,4.29,4.29,0,0,1,318,95.19a3.94,3.94,0,0,1,1.27,3A4.08,4.08,0,0,1,318,101.29Zm-1-5.29a2.4,2.4,0,0,0-2.16-1.33,2.2,2.2,0,0,0-2,1,4,4,0,0,0-.6,2.26,4.89,4.89,0,0,0,.66,2.55,2.45,2.45,0,0,0,2.17,1.3,2.25,2.25,0,0,0,2-1,4,4,0,0,0,.6-2.23A4.88,4.88,0,0,0,316.92,96Z"/><path d="M330.38,102.37c-.23,0-.55,0-1,0s-.76-.06-1-.06-.56,0-1,.06-.78,0-1,0-.27-.08-.25-.26l0-.24c0-.12.12-.2.32-.26l.44-.08c.42-.12.64-.48.64-1.12v-4c0-.88-.48-1.33-1.4-1.33a3.77,3.77,0,0,0-2.39,1.09v4.27c0,.56.16.88.46,1l.62.16a.86.86,0,0,1,.3.58q0,.18-.24.18c-.22,0-.56,0-1,0s-.74-.06-1-.06-.56,0-1,.06-.76,0-1,0-.24-.08-.24-.26V102a.71.71,0,0,1,0-.12c0-.12.1-.22.3-.26l.44-.08c.4-.12.62-.48.62-1.12V96.8c0-.56-.12-.92-.4-1.08a2.14,2.14,0,0,1-.32-.1c-.24-.1-.36-.22-.36-.35l.06-.16c0-.06.08-.1.18-.16,1.47-.68,2.23-1,2.33-1s.16.06.16.18v1.33A5.22,5.22,0,0,1,327.13,94c1.4,0,2.08.72,2.08,2.17v4.29a1.78,1.78,0,0,0,.16.9.85.85,0,0,0,.7.28,1.26,1.26,0,0,1,.53.12,1.21,1.21,0,0,1,0,.3C330.64,102.27,330.54,102.37,330.38,102.37Z"/><rect x="338.77" y="95.07" width="159.79" height="5.59"/><rect x="0.77" y="95.07" width="159.79" height="5.59"/><path d="M22.08,6.18c-.23,0-.38-.45-.5-1.4a2.27,2.27,0,0,0-1.17-2.05Q19.15,2.16,14,2.16c-1.79,0-2.85.19-3.26.57s-.69,1.44-.69,3.19v6.56h5.65a5.53,5.53,0,0,0,2.85-.57A3.29,3.29,0,0,0,19.69,10l.07-.26a1,1,0,0,1,.15-.38,3.22,3.22,0,0,1,.95-.08.4.4,0,0,1,.46.46c0,.41,0,1-.08,1.82s-.07,1.44-.07,1.85,0,1,.07,1.86.08,1.44.08,1.86a.39.39,0,0,1-.38.42h-.72a.39.39,0,0,1-.31-.12A9.07,9.07,0,0,0,19,14.83a1.94,1.94,0,0,0-1.55-.57H10.09v9.21a2.21,2.21,0,0,0,.91,2,4,4,0,0,0,1.79.42,3.32,3.32,0,0,1,1.25.15,4.12,4.12,0,0,1,.07,1c0,.3-.11.41-.34.41h-.11c-.57,0-1.44,0-2.62-.11S9,27.23,8.39,27.23s-1.44,0-2.62.11-2.08.11-2.65.11H3c-.23,0-.38-.34-.38-1.06,0-.15,0-.3.11-.34a3.35,3.35,0,0,1,1.33-.19,3.79,3.79,0,0,0,1.71-.38,2.25,2.25,0,0,0,.87-2V4.36a2.21,2.21,0,0,0-.87-2A3.79,3.79,0,0,0,4.1,2a3.16,3.16,0,0,1-1.33-.19A2.08,2.08,0,0,1,2.66.83.4.4,0,0,1,3.12.38l7,.23c.95,0,5.12,0,12.59-.19.19,0,.27.15.27.49V5.8C23,6,22.68,6.18,22.08,6.18Z"/><path d="M42.74,25.78l-.72.31c-.76.22-1.9.64-3.38,1.21l-1.17.53a.36.36,0,0,1-.38-.38V24.87c-2.13,1.9-4,2.85-5.69,2.85A4.67,4.67,0,0,1,28,26.5a4.35,4.35,0,0,1-1.32-3.29V16.12a3.3,3.3,0,0,0-.31-1.79,2,2,0,0,0-1.4-.57c-.61,0-.91-.19-.91-.38V13c0-.23.15-.38.46-.42.11,0,.94-.11,2.42-.3,1.67-.19,2.47-.31,2.47-.31a.31.31,0,0,1,.34.35v9.13c0,2.77,1.1,4.17,3.3,4.17a6.39,6.39,0,0,0,4-2V16c0-1.21-.46-1.89-1.41-2.12L35,13.73c-.3-.08-.45-.16-.45-.35V13a.49.49,0,0,1,.45-.38c.53,0,1.33-.15,2.39-.3,1.71-.23,2.5-.35,2.43-.35a.31.31,0,0,1,.34.35V23.62c0,.84.26,1.25.8,1.25a6.12,6.12,0,0,0,1.44-.26h.18c.16,0,.23.15.23.53A1.72,1.72,0,0,1,42.74,25.78Z"/><path d="M62.53,27.41c-.42,0-1,0-1.86-.07s-1.44-.11-1.86-.11-1.06,0-1.9.11-1.47.07-1.89.07-.49-.15-.46-.49l0-.45c0-.23.23-.38.61-.5s.53-.11.83-.15c.8-.23,1.22-.91,1.22-2.12V16.19c0-1.67-.91-2.5-2.66-2.5a7.09,7.09,0,0,0-4.51,2.05v8.07c0,1.06.3,1.67.87,1.86s.8.19,1.18.3a1.64,1.64,0,0,1,.57,1.1c0,.23-.16.34-.46.34s-1.06,0-1.86-.07-1.4-.11-1.82-.11-1.06,0-1.89.11-1.44.07-1.86.07-.46-.15-.46-.49v-.23a1.09,1.09,0,0,1,0-.22c0-.23.19-.42.57-.5s.53-.11.83-.15c.76-.23,1.18-.91,1.18-2.12V16.87c0-1.06-.23-1.74-.76-2a5,5,0,0,1-.6-.19c-.46-.19-.69-.42-.69-.65s.08-.19.12-.3.15-.19.34-.31c2.77-1.28,4.21-2,4.4-2s.3.12.3.34v2.51a10,10,0,0,1,6.29-2.73c2.66,0,3.95,1.36,3.95,4.09v8.12a3.35,3.35,0,0,0,.3,1.7A1.58,1.58,0,0,0,62,26a2.41,2.41,0,0,1,1,.23,2.17,2.17,0,0,1,.08.57C63,27.23,62.83,27.41,62.53,27.41Z"/><path d="M82,26.28c-.15,0-1.67.57-4.51,1.55a.34.34,0,0,1-.38-.38V25.22c-2,1.66-3.79,2.5-5.38,2.5a6.15,6.15,0,0,1-4.9-2.28A7.65,7.65,0,0,1,65,20.25,8.54,8.54,0,0,1,67.41,14a8.14,8.14,0,0,1,6.11-2.5,8,8,0,0,1,3.6.79V5.46c0-1.06-.23-1.74-.76-2a4.29,4.29,0,0,0-.61-.22c-.45-.16-.68-.38-.68-.61l.12-.34a.53.53,0,0,1,.34-.31A44.72,44.72,0,0,1,79.93,0a.26.26,0,0,1,.3.3V23.24q0,1.71,1.14,1.71a2.46,2.46,0,0,0,.68-.08,3.63,3.63,0,0,1,.64-.11c.12,0,.16.11.16.38v.53C82.85,25.9,82.58,26.13,82,26.28Zm-4.89-8.69A4.89,4.89,0,0,0,76,14.26a4.37,4.37,0,0,0-6.82.68,7.24,7.24,0,0,0-1.14,4.13,7.41,7.41,0,0,0,1.29,4.44,4.6,4.6,0,0,0,4,2.08,5,5,0,0,0,3.79-1.78Z"/><path d="M98.69,25.14c-.76,1.74-1.74,2.65-3,2.65a2.57,2.57,0,0,1-2-.87,3.6,3.6,0,0,1-.88-2,7.46,7.46,0,0,1-5.61,2.81,2.3,2.3,0,0,1-2-1.56,5.4,5.4,0,0,1-.72-2.65c0-.72.61-1.37,1.86-2,1-.38,1.9-.8,2.81-1.18.57-.22,1.82-.64,3.67-1.25V16.91c0-2.05-1-3.07-2.92-3.07s-2.8.57-2.8,1.63a2.3,2.3,0,0,0,.07.3,1.31,1.31,0,0,1,0,.35c0,.15-.3.41-.87.75a3,3,0,0,1-1.14.5c-.34,0-.53-.27-.53-.76,0-1.06.68-2,2-2.77l4.06-2.31a5.62,5.62,0,0,1,3.94,1.17c.8.76,1.17,2.05,1.17,3.87v7c0,1.25.38,1.89,1.07,1.89a1.66,1.66,0,0,0,.87-.41,2.19,2.19,0,0,1,.57-.38c.23,0,.38.07.38.26A1.33,1.33,0,0,0,98.69,25.14Zm-5.88-5.08c-3.48,1.36-5.23,2.43-5.23,3.22A2.93,2.93,0,0,0,88,24.72c.34.61.72.91,1.1.91a4.84,4.84,0,0,0,3.67-2.2Z"/><path d="M108.51,26.81a5.76,5.76,0,0,1-2.92.91c-2.54,0-3.83-1.41-3.83-4.17V14.83a1.16,1.16,0,0,0-.68-1.22,4.76,4.76,0,0,0-1.25-.19c-.42,0-.69-.15-.69-.38a.87.87,0,0,1,.38-.72,47.89,47.89,0,0,0,4.06-2.88,8.44,8.44,0,0,1,1-.79c.15,0,.23.07.23.22v3.19h4.85c.16,0,.23.23.23.68s-.07.68-.23.68h-4.85v9.67c0,1.63.72,2.47,2.16,2.47a3.23,3.23,0,0,0,1.9-.76l1-.76c.26,0,.41.11.41.42A2.92,2.92,0,0,1,108.51,26.81Zm-4.36,8.28a.24.24,0,0,1-.13,0s-.13-.08-.22-.25a.72.72,0,0,1-.13-.38q0-.08.15-.15c1.36-.7,2.06-1.36,2.06-1.91s-.35-.75-1.06-1a1.4,1.4,0,0,1-1-1.33,1,1,0,0,1,.43-.83,1.46,1.46,0,0,1,.93-.3,1.8,1.8,0,0,1,1.53.78,2.81,2.81,0,0,1,.5,1.71C107.16,33,106.18,34.24,104.15,35.09Z"/><path d="M120.07,27.41c-.42,0-1.06,0-1.86-.07s-1.4-.11-1.82-.11-1,0-1.85.11-1.45.07-1.86.07-.5-.15-.5-.49v-.23a1.09,1.09,0,0,1,0-.22c0-.27.19-.42.65-.5a3.67,3.67,0,0,0,1.25-.34,2.07,2.07,0,0,0,.68-1.78v-7c0-1.06-.23-1.74-.76-2a5,5,0,0,1-.6-.19c-.46-.19-.69-.42-.69-.65l.12-.3c0-.12.15-.19.34-.31,2.77-1.28,4.21-2,4.4-2s.3.12.3.34v12c0,.76.11,1.25.42,1.51a3.38,3.38,0,0,0,1.44.65,2.84,2.84,0,0,1,.72.3,3.13,3.13,0,0,1,.07.84C120.56,27.3,120.41,27.41,120.07,27.41ZM117.83,7.09a2.07,2.07,0,0,1-1.51.68,2,2,0,0,1-1.56-.68,2.23,2.23,0,0,1-.64-1.55A2.25,2.25,0,0,1,114.76,4a2.07,2.07,0,0,1,3.07,0,2.19,2.19,0,0,1,0,3.11Z"/><path d="M137,25.14c-.76,1.74-1.75,2.65-3,2.65a2.59,2.59,0,0,1-2-.87,3.59,3.59,0,0,1-.87-2,7.48,7.48,0,0,1-5.61,2.81c-.8,0-1.48-.49-2-1.56a5.4,5.4,0,0,1-.72-2.65c0-.72.61-1.37,1.86-2,1-.38,1.89-.8,2.8-1.18.57-.22,1.82-.64,3.68-1.25V16.91c0-2.05-1-3.07-2.92-3.07s-2.8.57-2.8,1.63a1.33,1.33,0,0,0,.07.3,1.31,1.31,0,0,1,0,.35c0,.15-.3.41-.87.75a3,3,0,0,1-1.14.5c-.34,0-.53-.27-.53-.76,0-1.06.68-2,2.05-2.77l4-2.31A5.65,5.65,0,0,1,133,12.7c.79.76,1.17,2.05,1.17,3.87v7c0,1.25.38,1.89,1.06,1.89a1.69,1.69,0,0,0,.88-.41,2.47,2.47,0,0,1,.56-.38c.23,0,.38.07.38.26C137.09,24.91,137.06,25,137,25.14Zm-5.88-5.08q-5.23,2-5.23,3.22a3,3,0,0,0,.45,1.44c.35.61.72.91,1.1.91a4.87,4.87,0,0,0,3.68-2.2Z"/><path d="M37.62,77.33A23.29,23.29,0,0,1,21.23,83.5,21.47,21.47,0,0,1,6.35,77.91,18.39,18.39,0,0,1,0,63.54,20.64,20.64,0,0,1,6.87,47.62a23.28,23.28,0,0,1,16.38-6.23A21.62,21.62,0,0,1,38.19,47a18.77,18.77,0,0,1,6.35,14.43A20.74,20.74,0,0,1,37.62,77.33ZM34.27,49.64c-3.11-3.93-7.38-5.83-12.69-5.83A14.19,14.19,0,0,0,9.92,49.17a19.22,19.22,0,0,0-4,12.52,21.08,21.08,0,0,0,4.39,13.56c3.11,3.93,7.33,5.83,12.63,5.83a14.29,14.29,0,0,0,11.72-5.37,19,19,0,0,0,4-12.46C38.66,57.77,37.16,53.21,34.27,49.64Z"/><path d="M98,83h-.17c-.87,0-2.19-.06-3.92-.17s-3.06-.18-3.93-.18-2.19.06-3.92.18S83,83,82.1,83H82c-.35,0-.52-.52-.52-1.61,0-.47.17-.7.64-.7a16.92,16.92,0,0,0,3.75-.46c1-.46,1.55-1.44,1.55-3.06V77L86.6,47.5l-14,34.91c-.28.8-.69,1.21-1.09,1.21a.55.55,0,0,1-.46-.18,3.73,3.73,0,0,1-.52-1l-13-31.62L57,76.87c0,1.67.35,2.77,1.15,3.23a9.87,9.87,0,0,0,3.58.63,1.08,1.08,0,0,1,.52.18,4.74,4.74,0,0,1,.12,1.5c0,.46-.18.63-.52.63h-.18c-.69,0-1.73-.06-3.17-.17s-2.48-.18-3.23-.18-1.79.06-3.23.18S49.5,83,48.75,83h-.12c-.34,0-.51-.52-.51-1.61,0-.47.17-.7.63-.7a10.65,10.65,0,0,0,4.1-.69c.86-.52,1.38-1.73,1.44-3.63l.63-26.83c0-2.19-.46-3.58-1.32-4.27-.7-.52-2.2-.87-4.5-1a1.34,1.34,0,0,1-.58-.17,3.1,3.1,0,0,1-.23-1.56c0-.52.23-.69.58-.69H49c.58,0,1.38.06,2.54.17a24.76,24.76,0,0,0,2.48.17c.92,0,2.07,0,3.46-.17,1.15-.11,1.67-.17,1.61-.17a.68.68,0,0,1,.64.46L73,74.39,85.73,42.66c.23-.52.46-.81.81-.81l1.73.17c1.44.12,2.65.17,3.58.17.57,0,1.5,0,2.65-.17s2-.17,2.6-.17h.23c.34,0,.46.52.46,1.61,0,.46-.52.7-1.56.75a8.27,8.27,0,0,0-2.88.52,3,3,0,0,0-1.56,3v.18L92.6,77c.05,2,1,3.18,2.71,3.52,1,.12,2,.23,3.06.41a4.52,4.52,0,0,1,.17,1.5C98.54,82.87,98.31,83,98,83Z"/><path d="M132.81,82.23c-.18.52-.29.75-.41.75-11.59-.23-18.05-.29-19.5-.29-.34,0-3.92.12-10.61.35-.46,0-.64-.17-.69-.52V81.43c0-.24,0-.47.11-.52a4.78,4.78,0,0,1,2-.29,5.78,5.78,0,0,0,2.6-.58A3.34,3.34,0,0,0,107.71,77V47.91a3.36,3.36,0,0,0-1.33-3.06,5.7,5.7,0,0,0-2.59-.58,5.13,5.13,0,0,1-2.08-.29c-.11-.11-.11-.57-.11-1.44a.61.61,0,0,1,.69-.69c6.75.23,10.27.34,10.61.34,2.08,0,5.14,0,9.23-.17s7.16-.11,9.24-.11c.23,0,.4.23.4.75v7.61c0,.35-.17.46-.52.46a2,2,0,0,1-1.56-.46c-.11-.75-.17-1.56-.23-2.31a3.33,3.33,0,0,0-2.25-2.59c-1.38-.52-4.61-.81-9.69-.81a5.46,5.46,0,0,0-3.64.92c-.69.64-1,1.85-1,3.58V60.31h6.35c3.23,0,5.13-1.27,5.83-3.81a3.7,3.7,0,0,1,.4-1,2.85,2.85,0,0,1,1.33-.17.61.61,0,0,1,.69.69c0,.64-.06,1.56-.12,2.83s0,2.19,0,2.82,0,1.56,0,2.83.12,2.19.12,2.83c0,.4-.52.63-1.5.63a1,1,0,0,1-.46-.11,14.24,14.24,0,0,0-1.39-3.81c-.57-.69-2.3-1.1-5.25-1.1h-6V75.25c0,2.08.29,3.35.93,4s2,.93,4,.93h3.8c4,0,6.52-.18,7.45-.64,1.09-.52,2.36-2.19,3.8-5.08.18-.28.29-.46.52-.46,1,0,1.44.18,1.44.64C134.88,74.68,134.19,77.21,132.81,82.23Z"/><path d="M185.31,44.16a13.65,13.65,0,0,0-4,.69c-.92.52-1.39,1.73-1.39,3.63V83.27c0,.69-.17,1-.46,1s-.57-.23-1-.75L147.69,48.19V76.64c0,1.84.52,2.94,1.44,3.46a11.63,11.63,0,0,0,4,.63,1.24,1.24,0,0,1,.58.18,4.74,4.74,0,0,1,.12,1.5c0,.46-.18.63-.52.63h-.18c-.75,0-1.84-.06-3.34-.17s-2.6-.18-3.35-.18-1.9.06-3.4.18-2.66.17-3.41.17h-.11c-.35,0-.58-.52-.58-1.61a.61.61,0,0,1,.69-.7,11.52,11.52,0,0,0,4-.63c.93-.52,1.45-1.67,1.45-3.52V46.35a9.06,9.06,0,0,0-4.62-2.08c-.81-.06-1.67-.17-2.48-.23-.17-.12-.23-.58-.23-1.44,0-.52.23-.75.63-.75h.18c.57,0,1.5.06,2.65.17s2,.17,2.6.17c.92,0,2.13,0,3.57-.17l1.74-.17c.23,0,.57.29,1,.81L177.23,74V48.31c0-1.85-.46-3-1.38-3.52a13.58,13.58,0,0,0-4-.63.68.68,0,0,1-.52-.18c-.12-.11-.18-.57-.18-1.44,0-.46.24-.69.58-.69h.12c.75,0,1.9.06,3.4.17s2.6.17,3.35.17,1.9,0,3.4-.17,2.6-.17,3.35-.17h.23c.34,0,.46.52.46,1.61A.62.62,0,0,1,185.31,44.16Z"/><path d="M204.86,83h-.11c-.93,0-2.25-.06-4-.17s-3.12-.18-4-.18-2.19.06-4,.18-3.12.17-4,.17h-.17c-.35,0-.52-.52-.52-1.61a.92.92,0,0,1,.11-.52c.17-.18.81-.18,1.91-.23a6,6,0,0,0,2.71-.64A3.34,3.34,0,0,0,194.13,77V47.91a3.36,3.36,0,0,0-1.33-3.06,6,6,0,0,0-2.65-.58,4.78,4.78,0,0,1-2-.29,5,5,0,0,1-.11-1.44c0-.46.17-.69.52-.69h.17c.86,0,2.19.06,4,.17s3.17.17,4,.17,2.25,0,4-.17,3.11-.17,4-.17h.11c.35,0,.58.52.58,1.61,0,.46-.58.7-1.62.75a8.7,8.7,0,0,0-2.94.52c-1,.52-1.56,1.56-1.56,3.18V77c0,2,.87,3.18,2.66,3.52,1.09.18,2.19.23,3.29.41.11,0,.17.63.17,1.5C205.44,82.87,205.21,83,204.86,83Z"/><path d="M248.65,83h-.17c-.81,0-2-.06-3.58-.17s-2.77-.18-3.57-.18-2,.06-3.64.18-2.83.17-3.63.17H234c-.41,0-.58-.52-.58-1.61,0-.41.29-.7.87-.75s.92-.06,1.38-.06c1.44-.12,2.14-.69,2.14-1.79A5.37,5.37,0,0,0,237.4,77l-3.86-10.32H220l-3.06,9.23a7.23,7.23,0,0,0-.52,2.36c0,1.27.75,2.08,2.25,2.31.87.12,1.79.23,2.65.4.12.06.18.58.18,1.45,0,.46-.23.63-.58.63h-.11c-.75,0-1.79-.06-3.18-.17s-2.48-.18-3.17-.18-1.79.06-3.17.18-2.48.17-3.18.17H208c-.35,0-.58-.52-.58-1.61,0-.41.29-.7.81-.75s1-.06,1.44-.06c2-.18,3.29-1.39,4.1-3.64L225.4,43.41c2.25-1.33,3.41-2,3.52-2s.23.17.35.46L243.06,77a6.15,6.15,0,0,0,2.3,3.12,4.4,4.4,0,0,0,2.25.58c.87,0,1.33,0,1.5.23a5.17,5.17,0,0,1,.12,1.44C249.23,82.87,249,83,248.65,83Zm-22.27-35.6-5.65,16.79h11.94Z"/><path d="M303.4,77.16c-4.21,3.86-9.52,5.77-16,5.77-1.21,0-3.11-.06-5.59-.12s-4.39-.12-5.6-.12c-.87,0-2.19.06-3.92.18s-3.06.17-3.93.17a.58.58,0,0,1-.63-.52c-.12-.63-.18-1-.18-.92a1.53,1.53,0,0,1,.12-.64,7.63,7.63,0,0,1,2.14-.52,4.19,4.19,0,0,0,2.76-1.38c.7-.87,1-2.31,1-4.38V47.91a3.39,3.39,0,0,0-.69-2.43,3.55,3.55,0,0,0-2.48-.69l-1.85.17a.64.64,0,0,1-.8-.57l-.18-.93c0-.52.23-.75.58-.8.63-.06,1.5-.18,2.71-.35,1.85-.23,3.87-.4,6.06-.58,4-.34,6.81-.46,8.48-.46,7.27,0,13.15,1.85,17.71,5.65A18.3,18.3,0,0,1,310,61.58C310,68,307.79,73.18,303.4,77.16Zm-4.9-28.74A19.6,19.6,0,0,0,285,43.69c-2.31,0-3.93.47-4.85,1.5s-1.38,2.77-1.38,5.14V73.58c0,2.88.69,4.79,2,5.77,1.1.81,3.18,1.21,6.18,1.21,5.54,0,9.75-1.85,12.81-5.54,2.82-3.4,4.32-7.9,4.32-13.56A16.82,16.82,0,0,0,298.5,48.42Z"/><path d="M351.17,83H351c-.81,0-2-.06-3.58-.17s-2.77-.18-3.58-.18-2,.06-3.63.18-2.83.17-3.64.17h-.05c-.41,0-.58-.52-.58-1.61,0-.41.29-.7.86-.75s.93-.06,1.39-.06c1.44-.12,2.13-.69,2.13-1.79a5.32,5.32,0,0,0-.4-1.85l-3.87-10.32H322.5l-3.06,9.23a7.23,7.23,0,0,0-.52,2.36c0,1.27.75,2.08,2.25,2.31.86.12,1.79.23,2.65.4.12.06.18.58.18,1.45,0,.46-.24.63-.58.63h-.12c-.75,0-1.79-.06-3.17-.17s-2.48-.18-3.17-.18-1.79.06-3.18.18-2.48.17-3.17.17h-.11c-.35,0-.58-.52-.58-1.61,0-.41.29-.7.81-.75s1-.06,1.44-.06c2-.18,3.29-1.39,4.09-3.64l11.66-33.57c2.25-1.33,3.4-2,3.52-2s.23.17.34.46L345.57,77a6.21,6.21,0,0,0,2.31,3.12,4.4,4.4,0,0,0,2.25.58c.87,0,1.33,0,1.5.23a5.17,5.17,0,0,1,.12,1.44C351.75,82.87,351.52,83,351.17,83ZM328.9,47.44l-5.65,16.79h11.94Z"/><path d="M390.69,76.12a29.74,29.74,0,0,1-1,4,.93.93,0,0,1-.41.4,28.39,28.39,0,0,1-13.21,2.94,23.46,23.46,0,0,1-16-5.88,19.65,19.65,0,0,1-6.92-15.35,19.4,19.4,0,0,1,6.58-14.83,22.9,22.9,0,0,1,16.09-6,29.77,29.77,0,0,1,13.5,3,1.07,1.07,0,0,1,.58.81c.17,1.73.4,4.21.81,7.44l-.06.29c-.06.18-.52.29-1.33.41a.71.71,0,0,1-.8-.64,11.52,11.52,0,0,0-3.75-6.34,12,12,0,0,0-8-2.6A17,17,0,0,0,359,61.58a19.19,19.19,0,0,0,5.31,14,18.44,18.44,0,0,0,13.85,5.54,10.87,10.87,0,0,0,7.61-2.71,11.77,11.77,0,0,0,3.41-6.58c.06-.46.23-.63.57-.63,1.1,0,1.68.17,1.68.57A39.44,39.44,0,0,1,390.69,76.12Z"/><path d="M411.69,83h-.12c-.92,0-2.25-.06-4-.17s-3.11-.18-4-.18-2.2.06-4,.18-3.11.17-4,.17h-.17c-.35,0-.52-.52-.52-1.61a.9.9,0,0,1,.12-.52c.17-.18.8-.18,1.9-.23a6,6,0,0,0,2.71-.64A3.32,3.32,0,0,0,401,77V47.91a3.36,3.36,0,0,0-1.33-3.06,6,6,0,0,0-2.65-.58,4.74,4.74,0,0,1-2-.29,4.83,4.83,0,0,1-.12-1.44c0-.46.17-.69.52-.69h.17c.87,0,2.2.06,4,.17s3.18.17,4,.17,2.25,0,4-.17,3.12-.17,4-.17h.12c.34,0,.57.52.57,1.61,0,.46-.57.7-1.61.75a8.7,8.7,0,0,0-2.94.52c-1,.52-1.56,1.56-1.56,3.18V77c0,2,.86,3.18,2.65,3.52,1.1.18,2.2.23,3.29.41.12,0,.17.63.17,1.5C412.26,82.87,412,83,411.69,83Z"/><path d="M453.46,76.12a29.74,29.74,0,0,1-1,4,.93.93,0,0,1-.41.4,28.42,28.42,0,0,1-13.21,2.94,23.44,23.44,0,0,1-16-5.88,19.65,19.65,0,0,1-6.92-15.35,19.4,19.4,0,0,1,6.58-14.83,22.9,22.9,0,0,1,16.09-6,29.77,29.77,0,0,1,13.5,3,1.07,1.07,0,0,1,.58.81c.17,1.73.4,4.21.81,7.44l-.06.29c-.06.18-.52.29-1.33.41-.4,0-.69-.18-.81-.64a11.4,11.4,0,0,0-3.75-6.34,12,12,0,0,0-8-2.6,17,17,0,0,0-17.77,17.77,19.19,19.19,0,0,0,5.31,14,18.44,18.44,0,0,0,13.85,5.54,10.87,10.87,0,0,0,7.61-2.71A11.77,11.77,0,0,0,452,71.79c.05-.46.23-.63.57-.63,1.1,0,1.68.17,1.68.57A39.44,39.44,0,0,1,453.46,76.12Z"/><path d="M498.75,83h-.18c-.81,0-2-.06-3.57-.17s-2.77-.18-3.58-.18-2,.06-3.64.18S485,83,484.15,83h-.06c-.4,0-.58-.52-.58-1.61,0-.41.29-.7.87-.75s.92-.06,1.38-.06c1.45-.12,2.14-.69,2.14-1.79a5.56,5.56,0,0,0-.4-1.85l-3.87-10.32H470.07L467,75.89a7.45,7.45,0,0,0-.51,2.36c0,1.27.75,2.08,2.25,2.31.86.12,1.78.23,2.65.4.11.06.17.58.17,1.45,0,.46-.23.63-.57.63h-.12c-.75,0-1.79-.06-3.17-.17s-2.48-.18-3.18-.18-1.78.06-3.17.18-2.48.17-3.17.17h-.12c-.34,0-.57-.52-.57-1.61,0-.41.28-.7.8-.75s1-.06,1.45-.06c2-.18,3.28-1.39,4.09-3.64L475.5,43.41c2.25-1.33,3.4-2,3.51-2s.24.17.35.46L493.15,77a6.16,6.16,0,0,0,2.31,3.12,4.34,4.34,0,0,0,2.25.58c.86,0,1.32,0,1.5.23a5.89,5.89,0,0,1,.11,1.44C499.32,82.87,499.09,83,498.75,83Zm-14-45.46a9.25,9.25,0,0,1-13.84,0,11.69,11.69,0,0,1-3-7h.86C470,34,473,35.73,477.86,35.73s7.79-1.73,9-5.19h.87A11.64,11.64,0,0,1,484.78,37.58Zm-8.3,9.86-5.66,16.79h11.94Z"/></g></g></svg>