<svg xmlns="http://www.w3.org/2000/svg" viewBox="0 0 520.4 187.69"><title>logo_short</title><g id="Layer_2" data-name="Layer 2"><g id="Short_Logo" data-name="Short Logo"><path d="M517.53,69c-2.79-2.79-16.2-2.79-16.2-2.79-1.12-2.8-9.5-3.91-9.5-3.91-1.68-2.24-12-7.55-12-7.55-2.24-15.65-27.95-22.35-27.95-22.35L443.48,0S420.57,23.47,420,24l-6.43.28c-3.91-1.12-6.15-8.38-6.15-8.38-2.23,1.12,3.36,9.5,3.36,9.5l-10.06-6.71,1.11,4.47L394.58,21l7.26,4.47-12.29,2.24c-21.24-.56-26.27,3.91-35.21,5.58s-16.77,10.06-16.77,10.06c7.83-4.47,20.12-5.58,20.12-5.58s-31.3,15.09-47.5,24-34.1,9.5-41.92,9.5-11.18-1.12-17.89-5-21.23-10.06-21.23-10.06c0,1.09,4,3.82,6.8,5.61-3.54-1.8-9-3.93-9-3.93L235.85,64s-12.29-6.14-19.56-10.06-31.86-12.85-50.86-11.17a115.74,115.74,0,0,0-34.65,8.38C128,52.26,103.4,59,103.4,59c3.91,1.68,16.76-1.67,16.76-1.67-2.23,1.67-18.44,7.26-18.44,7.26,5,1.12,18.44-2.23,17.32-1.67S82.72,73.49,78.8,74.61s-27.38,4.47-31.29,3.91S35.77,70.7,25.15,67.35,2.24,65.11,2.24,65.11c13.41,1.68,14.53,5,14.53,5C5.59,67.35,0,69.58,0,69.58c13.41,0,17.88,4.47,17.88,4.47C6.71,71.26,0,75.73,0,75.73c10.06-.56,16.21,2.79,16.21,2.79C8.94,76.85,0,81.32,0,81.32a29.22,29.22,0,0,1,18.44,2.23C10.62,81.88,0,89.14,0,89.14c17.88-3.35,38.56,1.12,47,5s17.88,2.24,33,1.12S110.66,88,110.66,88l-3.91,4.47h5.59L109.54,97s25.71-16.77,36.33-21.24,27.95-2.24,35.77-1.12,19.56,10.62,26.27,14.53S229.15,99.2,229.15,99.2c-3.92,1.68-20.68-2.79-20.68-2.79.56,2.79,11.17,5,11.17,5-.55,2.23-13.41,0-13.41,0,6.71,7.26,33.53,6.71,33.53,6.71s9,5,16.77,6.14,21.24,8.95,38.57,8.95a140.2,140.2,0,0,0,39.12-6.15c5-1.68,10.62-3.36,10.62-3.36l-4.47,5.59c10.06,0,23.47-11.73,23.47-11.73-6.15,6.7-16.21,13.41-16.21,13.41,8.94-2.24,32.42-19,43-25.15a21.78,21.78,0,0,1,20.12-1.12,12.22,12.22,0,0,0,.55,7.83s-3.91,6.14.56.56a20,20,0,0,1,11.18-6.71c-3.91,3.91-1.12,7.26-1.12,7.26,6.15-6.14,10.62-6.14,26.83-4.47s17.33,10.06,27.95,9.5S486.8,98.09,486.8,97s-11.18-4.47-15.65-6.71-6.15-5.59,5-8.38,18.44,6.7,18.44,6.7c.56,3.92-6.15,6.15-6.15,6.15,6.71,0,15.09-3.35,15.09-3.35s0-2.8,10.06-9.5S520.33,71.82,517.53,69ZM463.6,49.18s7.27-2.23,11.18,7.27C474.78,56.45,465.84,57.57,463.6,49.18Z"/><path d="M33.25,109.56c-.23,0-.38-.45-.49-1.4a2.31,2.31,0,0,0-1.18-2c-.83-.38-3-.57-6.37-.57-1.78,0-2.84.19-3.26.57s-.68,1.44-.68,3.19v6.56h5.65a5.47,5.47,0,0,0,2.84-.57,3.21,3.21,0,0,0,1.1-1.94l.08-.26a.93.93,0,0,1,.15-.38,3.22,3.22,0,0,1,.95-.08.4.4,0,0,1,.45.46c0,.42,0,1-.07,1.82s-.08,1.44-.08,1.86,0,1,.08,1.86.07,1.44.07,1.85a.39.39,0,0,1-.38.42h-.72a.39.39,0,0,1-.3-.11,9.33,9.33,0,0,0-.91-2.58,2,2,0,0,0-1.56-.57H21.27v9.21a2.19,2.19,0,0,0,.91,2,3.93,3.93,0,0,0,1.78.42c.72,0,1.14,0,1.25.15a3.38,3.38,0,0,1,.08,1c0,.3-.12.41-.34.41h-.12c-.57,0-1.44,0-2.61-.11s-2.09-.11-2.66-.11-1.44,0-2.61.11-2.09.11-2.66.11h-.07c-.23,0-.38-.34-.38-1.06,0-.15,0-.3.11-.34a3.3,3.3,0,0,1,1.33-.19,3.75,3.75,0,0,0,1.7-.38,2.26,2.26,0,0,0,.88-2V107.74a2.22,2.22,0,0,0-.88-2,3.88,3.88,0,0,0-1.7-.38,3,3,0,0,1-1.33-.19c-.08-.07-.11-.37-.11-.94a.4.4,0,0,1,.45-.46l7,.23c.95,0,5.12,0,12.59-.19.19,0,.26.15.26.49v4.89C34.12,109.41,33.86,109.56,33.25,109.56Z"/><path d="M53.91,129.17l-.72.3c-.76.23-1.9.64-3.37,1.21l-1.18.53a.36.36,0,0,1-.38-.38v-2.57q-3.18,2.84-5.69,2.84a4.69,4.69,0,0,1-3.37-1.21,4.4,4.4,0,0,1-1.33-3.3V119.5a3.28,3.28,0,0,0-.3-1.78,1.89,1.89,0,0,0-1.4-.57c-.61,0-.91-.19-.91-.38v-.42c0-.23.15-.38.45-.42.12,0,.95-.11,2.43-.3,1.67-.19,2.46-.3,2.46-.3a.3.3,0,0,1,.34.34v9.14c0,2.76,1.1,4.17,3.3,4.17a6.39,6.39,0,0,0,4-2v-7.58c0-1.22-.45-1.9-1.4-2.13l-.68-.11c-.31-.08-.46-.15-.46-.34v-.42a.5.5,0,0,1,.46-.38c.53,0,1.32-.15,2.39-.3,1.7-.23,2.5-.34,2.42-.34a.3.3,0,0,1,.34.34V127c0,.83.27,1.25.8,1.25a6.22,6.22,0,0,0,1.44-.27h.19c.15,0,.23.15.23.53A1.53,1.53,0,0,1,53.91,129.17Z"/><path d="M73.7,130.8a18.14,18.14,0,0,1-1.86-.08c-.83-.07-1.44-.11-1.85-.11s-1.07,0-1.9.11a18.84,18.84,0,0,1-1.9.08.4.4,0,0,1-.45-.5l0-.45c0-.23.22-.38.6-.49s.53-.12.84-.16c.79-.22,1.21-.91,1.21-2.12v-7.51c0-1.67-.91-2.5-2.65-2.5a7.13,7.13,0,0,0-4.52,2.05v8.07c0,1.07.31,1.67.88,1.86.41.12.79.19,1.17.31a1.62,1.62,0,0,1,.57,1.1c0,.22-.15.34-.46.34a17.58,17.58,0,0,1-1.85-.08c-.8-.07-1.41-.11-1.82-.11s-1.07,0-1.9.11a18,18,0,0,1-1.86.08c-.3,0-.45-.15-.45-.5v-.22a1.24,1.24,0,0,1,0-.23c0-.23.19-.42.57-.49s.53-.12.83-.16c.76-.22,1.17-.91,1.17-2.12v-6.82c0-1.07-.22-1.75-.75-2.05a4.38,4.38,0,0,1-.61-.19c-.46-.19-.68-.42-.68-.65l.11-.3c0-.11.15-.19.34-.3,2.77-1.29,4.21-2,4.4-2s.3.11.3.34v2.5a10,10,0,0,1,6.3-2.73c2.65,0,3.94,1.36,3.94,4.09v8.12a3.39,3.39,0,0,0,.31,1.71,1.62,1.62,0,0,0,1.32.53,2.34,2.34,0,0,1,1,.22,2.27,2.27,0,0,1,.07.57C74.19,130.61,74,130.8,73.7,130.8Z"/><path d="M93.19,129.66c-.16,0-1.67.57-4.52,1.55a.34.34,0,0,1-.38-.38V128.6c-2,1.67-3.79,2.5-5.38,2.5A6.16,6.16,0,0,1,78,128.83a7.7,7.7,0,0,1-1.86-5.2,8.57,8.57,0,0,1,2.43-6.22,8.14,8.14,0,0,1,6.1-2.5,7.84,7.84,0,0,1,3.6.8v-6.87c0-1.06-.22-1.74-.75-2-.08,0-.27-.11-.61-.22s-.68-.38-.68-.61l.11-.34a.54.54,0,0,1,.34-.3c2.77-1.29,4.25-1.94,4.4-1.94s.3.08.3.31v22.94c0,1.13.38,1.7,1.14,1.7a2.8,2.8,0,0,0,.68-.07,3.13,3.13,0,0,1,.65-.12c.11,0,.15.12.15.38v.53C94,129.28,93.75,129.51,93.19,129.66ZM88.29,121a4.86,4.86,0,0,0-1.1-3.34,4.37,4.37,0,0,0-6.82.68,7.25,7.25,0,0,0-1.14,4.14,7.47,7.47,0,0,0,1.29,4.43,4.62,4.62,0,0,0,4,2.09,5,5,0,0,0,3.79-1.79Z"/><path d="M109.87,128.52c-.76,1.75-1.75,2.66-3,2.66a2.59,2.59,0,0,1-2-.88,3.59,3.59,0,0,1-.87-2,7.5,7.5,0,0,1-5.61,2.81,2.3,2.3,0,0,1-2-1.55,5.36,5.36,0,0,1-.72-2.66c0-.72.6-1.36,1.85-2,1-.38,1.9-.79,2.81-1.17.57-.23,1.82-.65,3.68-1.25v-2.17c0-2-1-3.07-2.92-3.07s-2.81.57-2.81,1.63a1.75,1.75,0,0,0,.08.31,1.21,1.21,0,0,1,0,.34c0,.15-.31.41-.88.76a2.85,2.85,0,0,1-1.13.49c-.34,0-.53-.27-.53-.76a3.3,3.3,0,0,1,2-2.77l4.06-2.31a5.65,5.65,0,0,1,3.94,1.17c.8.76,1.18,2,1.18,3.87v7c0,1.25.38,1.9,1.06,1.9a1.66,1.66,0,0,0,.87-.42,2.19,2.19,0,0,1,.57-.38c.23,0,.38.07.38.26A1,1,0,0,0,109.87,128.52ZM104,123.44c-3.49,1.37-5.23,2.43-5.23,3.22a3,3,0,0,0,.45,1.44c.34.61.72.91,1.1.91a4.89,4.89,0,0,0,3.68-2.19Z"/><path d="M119.68,130.19a5.64,5.64,0,0,1-2.92.91c-2.54,0-3.83-1.4-3.83-4.17v-8.72a1.15,1.15,0,0,0-.68-1.22,4.49,4.49,0,0,0-1.25-.18c-.42,0-.68-.16-.68-.38a.85.85,0,0,1,.38-.72c1.51-1,2.88-1.94,4-2.89a8.93,8.93,0,0,1,1-.79.19.19,0,0,1,.22.22v3.19h4.86c.15,0,.23.23.23.68s-.08.69-.23.69H116v9.66c0,1.63.73,2.47,2.17,2.47a3.21,3.21,0,0,0,1.89-.76l1-.76a.37.37,0,0,1,.42.42A2.93,2.93,0,0,1,119.68,130.19Zm-4.36,8.28a.23.23,0,0,1-.12,0s-.13-.08-.23-.25a.83.83,0,0,1-.13-.38q0-.08.15-.15c1.36-.7,2.06-1.35,2.06-1.91,0-.4-.35-.75-1-1a1.41,1.41,0,0,1-1.06-1.33,1,1,0,0,1,.43-.83,1.48,1.48,0,0,1,.93-.3,1.78,1.78,0,0,1,1.53.78,2.83,2.83,0,0,1,.5,1.71C118.33,136.39,117.36,137.62,115.32,138.47Z"/><path d="M131.25,130.8a17.65,17.65,0,0,1-1.86-.08c-.8-.07-1.4-.11-1.82-.11s-1,0-1.86.11a18,18,0,0,1-1.86.08c-.34,0-.49-.15-.49-.5v-.22a1.24,1.24,0,0,1,0-.23c0-.27.19-.42.64-.49a3.54,3.54,0,0,0,1.25-.35,2,2,0,0,0,.69-1.78v-7c0-1.07-.23-1.75-.76-2.05a4.38,4.38,0,0,1-.61-.19c-.45-.19-.68-.42-.68-.65l.11-.3c0-.11.15-.19.34-.3,2.77-1.29,4.21-2,4.4-2s.3.11.3.34v12a2,2,0,0,0,.42,1.52,3.4,3.4,0,0,0,1.44.64,2.7,2.7,0,0,1,.72.3,3,3,0,0,1,.08.84C131.74,130.68,131.59,130.8,131.25,130.8ZM129,110.47a2.1,2.1,0,0,1-1.52.69,2,2,0,0,1-1.55-.69,2.2,2.2,0,0,1-.65-1.55,2.22,2.22,0,0,1,.65-1.56,2,2,0,0,1,1.55-.68,2.23,2.23,0,0,1,1.52,3.79Z"/><path d="M148.19,128.52c-.76,1.75-1.74,2.66-3,2.66a2.58,2.58,0,0,1-2-.88,3.52,3.52,0,0,1-.87-2,7.5,7.5,0,0,1-5.62,2.81c-.79,0-1.47-.49-2-1.55a5.46,5.46,0,0,1-.72-2.66c0-.72.61-1.36,1.86-2,.95-.38,1.9-.79,2.81-1.17.57-.23,1.82-.65,3.68-1.25v-2.17c0-2-1-3.07-2.92-3.07s-2.81.57-2.81,1.63a1.75,1.75,0,0,0,.08.31,1.6,1.6,0,0,1,0,.34c0,.15-.3.41-.87.76a2.93,2.93,0,0,1-1.14.49c-.34,0-.53-.27-.53-.76,0-1.06.69-2,2.05-2.77l4.06-2.31a5.65,5.65,0,0,1,3.94,1.17c.8.76,1.18,2,1.18,3.87v7c0,1.25.38,1.9,1.06,1.9a1.66,1.66,0,0,0,.87-.42,2.19,2.19,0,0,1,.57-.38c.23,0,.38.07.38.26A1.33,1.33,0,0,0,148.19,128.52Zm-5.87-5.08c-3.49,1.37-5.24,2.43-5.24,3.22a3,3,0,0,0,.46,1.44c.34.61.72.91,1.1.91a4.89,4.89,0,0,0,3.68-2.19Z"/><path d="M48.79,180.71a23.23,23.23,0,0,1-16.38,6.17,21.51,21.51,0,0,1-14.89-5.59,18.39,18.39,0,0,1-6.35-14.37A20.66,20.66,0,0,1,18,151a23.34,23.34,0,0,1,16.39-6.23,21.65,21.65,0,0,1,14.94,5.59,18.79,18.79,0,0,1,6.34,14.43A20.7,20.7,0,0,1,48.79,180.71ZM45.45,153c-3.12-3.92-7.39-5.83-12.7-5.83a14.15,14.15,0,0,0-11.65,5.37,19.19,19.19,0,0,0-4,12.52,21.12,21.12,0,0,0,4.38,13.55c3.12,3.93,7.33,5.83,12.64,5.83a14.29,14.29,0,0,0,11.71-5.36,19.07,19.07,0,0,0,4-12.47A21.08,21.08,0,0,0,45.45,153Z"/><path d="M109.14,186.42H109c-.86,0-2.19,0-3.92-.17s-3.06-.17-3.92-.17-2.19,0-3.93.17-3,.17-3.92.17h-.11c-.35,0-.52-.52-.52-1.61,0-.46.17-.69.63-.69a16.46,16.46,0,0,0,3.75-.47c1-.46,1.56-1.44,1.56-3.05v-.23l-.81-29.49-14,34.91c-.29.81-.69,1.21-1.1,1.21a.59.59,0,0,1-.46-.17,4.19,4.19,0,0,1-.52-1l-13-31.62-.52,26.08c0,1.67.35,2.77,1.16,3.23a10,10,0,0,0,3.58.64,1,1,0,0,1,.51.17,4.85,4.85,0,0,1,.12,1.5c0,.46-.17.63-.52.63h-.17c-.69,0-1.73,0-3.18-.17s-2.48-.17-3.23-.17-1.78,0-3.23.17-2.54.17-3.29.17h-.11c-.35,0-.52-.52-.52-1.61,0-.46.17-.69.63-.69a10.75,10.75,0,0,0,4.1-.7c.87-.52,1.39-1.73,1.44-3.63L66.1,153c0-2.19-.46-3.58-1.33-4.27-.69-.52-2.19-.86-4.5-1a1.24,1.24,0,0,1-.58-.17,3.2,3.2,0,0,1-.23-1.56c0-.52.23-.69.58-.69h.17c.58,0,1.39.06,2.54.17s1.91.18,2.48.18c.93,0,2.08-.06,3.46-.18,1.16-.11,1.68-.17,1.62-.17a.66.66,0,0,1,.63.46l13.22,32.08L96.91,146c.23-.52.46-.81.8-.81l1.73.17c1.45.12,2.66.18,3.58.18.58,0,1.5-.06,2.66-.18s2-.17,2.59-.17h.23c.35,0,.46.52.46,1.62,0,.46-.52.69-1.55.75a8.11,8.11,0,0,0-2.89.51,3,3,0,0,0-1.56,3v.18l.81,29.08c.06,2,1,3.17,2.71,3.51,1,.12,2,.24,3.06.41a4.28,4.28,0,0,1,.17,1.5C109.71,186.25,109.48,186.42,109.14,186.42Z"/><path d="M144,185.62c-.17.51-.29.75-.4.75-11.6-.24-18.06-.29-19.5-.29-.35,0-3.92.11-10.62.34-.46,0-.63-.17-.69-.52v-1.09c0-.23,0-.46.12-.52a4.92,4.92,0,0,1,2-.29,5.73,5.73,0,0,0,2.59-.58,3.33,3.33,0,0,0,1.39-3V151.29a3.39,3.39,0,0,0-1.33-3.06,5.74,5.74,0,0,0-2.6-.58,4.92,4.92,0,0,1-2.07-.29c-.12-.11-.12-.57-.12-1.44a.61.61,0,0,1,.69-.69c6.75.23,10.27.35,10.62.35,2.08,0,5.13-.06,9.23-.18s7.15-.11,9.23-.11c.23,0,.4.23.4.75v7.61c0,.35-.17.46-.52.46a2,2,0,0,1-1.55-.46c-.12-.75-.18-1.55-.23-2.3a3.34,3.34,0,0,0-2.25-2.6c-1.39-.52-4.62-.81-9.7-.81a5.41,5.41,0,0,0-3.63.92c-.69.64-1,1.85-1,3.58v11.25h6.34c3.24,0,5.14-1.27,5.83-3.81a3.81,3.81,0,0,1,.41-1,2.76,2.76,0,0,1,1.32-.17.61.61,0,0,1,.69.69c0,.64,0,1.56-.11,2.83s-.06,2.19-.06,2.83,0,1.55.06,2.82.11,2.2.11,2.83c0,.4-.51.64-1.5.64a1.08,1.08,0,0,1-.46-.12,13.9,13.9,0,0,0-1.38-3.81c-.58-.69-2.31-1.09-5.25-1.09h-6v12.28c0,2.08.29,3.35.92,4s2,.92,4,.92h3.81c4,0,6.52-.17,7.44-.64,1.1-.52,2.37-2.19,3.81-5.07.17-.29.29-.46.52-.46,1,0,1.44.17,1.44.63Q146.06,178.09,144,185.62Z"/><path d="M196.48,147.54a13.72,13.72,0,0,0-4,.69q-1.38.78-1.38,3.63v34.79c0,.7-.17,1-.46,1s-.58-.23-1-.75l-30.69-35.36V180c0,1.85.51,2.94,1.44,3.46a11.75,11.75,0,0,0,4,.64,1.27,1.27,0,0,1,.58.17,5.5,5.5,0,0,1,.11,1.5c0,.46-.17.63-.52.63h-.17c-.75,0-1.85,0-3.35-.17s-2.59-.17-3.34-.17-1.91,0-3.41.17-2.65.17-3.4.17h-.12c-.34,0-.57-.52-.57-1.61a.61.61,0,0,1,.69-.69,11.8,11.8,0,0,0,4-.64c.92-.52,1.44-1.67,1.44-3.52V149.73a9.08,9.08,0,0,0-4.61-2.08c-.81-.05-1.68-.17-2.48-.23-.18-.11-.24-.57-.24-1.44,0-.52.24-.75.64-.75h.17c.58,0,1.5.06,2.66.17s2,.18,2.59.18c.93,0,2.14-.06,3.58-.18l1.73-.17c.23,0,.58.29,1,.81l27.12,31.33V151.69c0-1.84-.47-3-1.39-3.52a13.58,13.58,0,0,0-4-.63.7.7,0,0,1-.52-.18,3.06,3.06,0,0,1-.17-1.44c0-.46.23-.69.58-.69H183c.75,0,1.91.06,3.41.17s2.59.18,3.34.18,1.91-.06,3.41-.18,2.59-.17,3.34-.17h.23c.35,0,.46.52.46,1.62A.61.61,0,0,1,196.48,147.54Z"/><path d="M216,186.42h-.12c-.92,0-2.25,0-4-.17s-3.11-.17-4-.17-2.19,0-4,.17-3.11.17-4,.17h-.17c-.35,0-.52-.52-.52-1.61a1,1,0,0,1,.12-.52c.17-.17.8-.17,1.9-.23a6,6,0,0,0,2.71-.64,3.33,3.33,0,0,0,1.39-3V151.29a3.39,3.39,0,0,0-1.33-3.06,6,6,0,0,0-2.65-.58,4.57,4.57,0,0,1-2-.29,4.83,4.83,0,0,1-.12-1.44c0-.46.17-.69.52-.69h.17c.87,0,2.2.06,4,.17s3.18.18,4,.18,2.25-.06,4-.18,3.12-.17,4-.17H216c.34,0,.57.52.57,1.62,0,.46-.57.69-1.61.75a8.51,8.51,0,0,0-2.94.51c-1,.52-1.56,1.56-1.56,3.18v29.08c0,2,.86,3.17,2.65,3.51,1.1.18,2.2.24,3.29.41.12.06.17.63.17,1.5C216.61,186.25,216.38,186.42,216,186.42Z"/><path d="M259.83,186.42h-.18c-.8,0-2,0-3.57-.17s-2.77-.17-3.58-.17-2,0-3.63.17-2.83.17-3.64.17h-.06c-.4,0-.57-.52-.57-1.61,0-.41.28-.69.86-.75s.92-.06,1.39-.06c1.44-.12,2.13-.69,2.13-1.79a5.27,5.27,0,0,0-.4-1.84L244.71,170H231.15l-3.06,9.23a7.45,7.45,0,0,0-.51,2.36c0,1.27.75,2.08,2.25,2.31.86.12,1.78.23,2.65.41.12.05.17.57.17,1.44,0,.46-.23.63-.57.63H232c-.75,0-1.79,0-3.17-.17s-2.48-.17-3.18-.17-1.78,0-3.17.17-2.48.17-3.17.17h-.12c-.34,0-.57-.52-.57-1.61,0-.41.28-.69.8-.75s1-.06,1.45-.06c2-.17,3.28-1.38,4.09-3.63l11.66-33.58c2.25-1.33,3.4-2,3.52-2s.23.17.34.46l13.79,35.14a6.18,6.18,0,0,0,2.31,3.11,4.3,4.3,0,0,0,2.25.58c.86,0,1.33.06,1.5.23a5.38,5.38,0,0,1,.11,1.44C260.4,186.25,260.17,186.42,259.83,186.42Zm-22.27-35.59-5.66,16.79h11.95Z"/><path d="M314.58,180.54c-4.22,3.86-9.52,5.77-16,5.77-1.21,0-3.12-.06-5.6-.12s-4.38-.11-5.6-.11c-.86,0-2.19,0-3.92.17s-3.06.17-3.92.17a.58.58,0,0,1-.64-.52c-.11-.63-.17-1-.17-.92a1.44,1.44,0,0,1,.12-.63,6.66,6.66,0,0,1,2.13-.52,4.22,4.22,0,0,0,2.77-1.39c.69-.86,1-2.31,1-4.38V151.29a3.41,3.41,0,0,0-.69-2.43,3.58,3.58,0,0,0-2.49-.69l-1.84.18a.66.66,0,0,1-.81-.58l-.17-.92c0-.52.23-.75.57-.81.64-.06,1.5-.18,2.72-.35,1.84-.23,3.86-.4,6-.58,4-.34,6.81-.46,8.49-.46,7.26,0,13.15,1.85,17.71,5.66A18.29,18.29,0,0,1,321.15,165C321.15,171.42,319,176.56,314.58,180.54Zm-4.91-28.73c-3.58-3.18-8.08-4.73-13.5-4.73-2.31,0-3.92.46-4.84,1.5s-1.39,2.77-1.39,5.13V177c0,2.89.69,4.79,2,5.77,1.1.81,3.17,1.21,6.17,1.21,5.54,0,9.75-1.84,12.81-5.54,2.83-3.4,4.33-7.9,4.33-13.55A16.8,16.8,0,0,0,309.67,151.81Z"/><path d="M362.34,186.42h-.17c-.81,0-2,0-3.58-.17s-2.76-.17-3.57-.17-2,0-3.64.17-2.82.17-3.63.17h-.06c-.4,0-.58-.52-.58-1.61,0-.41.29-.69.87-.75s.92-.06,1.38-.06c1.45-.12,2.14-.69,2.14-1.79a5.33,5.33,0,0,0-.41-1.84L347.23,170H333.67l-3.06,9.23a7.51,7.51,0,0,0-.52,2.36c0,1.27.75,2.08,2.25,2.31.87.12,1.79.23,2.66.41.11.05.17.57.17,1.44,0,.46-.23.63-.58.63h-.11c-.75,0-1.79,0-3.18-.17s-2.48-.17-3.17-.17-1.79,0-3.17.17-2.48.17-3.17.17h-.12c-.35,0-.58-.52-.58-1.61,0-.41.29-.69.81-.75s1-.06,1.44-.06c2-.17,3.29-1.38,4.1-3.63l11.65-33.58c2.25-1.33,3.41-2,3.52-2s.23.17.35.46l13.79,35.14a6.13,6.13,0,0,0,2.31,3.11,4.25,4.25,0,0,0,2.25.58c.86,0,1.32.06,1.5.23a5.89,5.89,0,0,1,.11,1.44C362.92,186.25,362.69,186.42,362.34,186.42Zm-22.27-35.59-5.65,16.79h11.94Z"/><path d="M401.86,179.5a27.6,27.6,0,0,1-1,4,.91.91,0,0,1-.4.4,28.42,28.42,0,0,1-13.21,2.94,23.44,23.44,0,0,1-16-5.88,20.22,20.22,0,0,1-.35-30.17,22.89,22.89,0,0,1,16.1-6.06,29.78,29.78,0,0,1,13.5,3.06,1.06,1.06,0,0,1,.58.8c.17,1.73.4,4.22.8,7.45l-.05.29c-.06.17-.52.28-1.33.4-.41.06-.69-.17-.81-.64a11.4,11.4,0,0,0-3.75-6.34,12,12,0,0,0-8-2.6A17,17,0,0,0,370.19,165a19.19,19.19,0,0,0,5.31,14,18.38,18.38,0,0,0,13.84,5.54,10.88,10.88,0,0,0,7.62-2.71,11.76,11.76,0,0,0,3.4-6.58c.06-.46.23-.63.58-.63,1.1,0,1.67.17,1.67.58A39.88,39.88,0,0,1,401.86,179.5Z"/><path d="M422.86,186.42h-.11c-.93,0-2.25,0-4-.17s-3.12-.17-4-.17-2.19,0-4,.17-3.12.17-4,.17h-.17c-.35,0-.52-.52-.52-1.61a1,1,0,0,1,.11-.52c.17-.17.81-.17,1.91-.23a6,6,0,0,0,2.71-.64,3.32,3.32,0,0,0,1.38-3V151.29a3.37,3.37,0,0,0-1.33-3.06,6,6,0,0,0-2.65-.58,4.61,4.61,0,0,1-2-.29,5,5,0,0,1-.11-1.44c0-.46.17-.69.52-.69h.17c.86,0,2.19.06,4,.17s3.17.18,4,.18,2.25-.06,4-.18,3.11-.17,4-.17h.11c.35,0,.58.52.58,1.62,0,.46-.58.69-1.62.75a8.51,8.51,0,0,0-2.94.51c-1,.52-1.56,1.56-1.56,3.18v29.08c0,2,.87,3.17,2.66,3.51,1.09.18,2.19.24,3.29.41a3.25,3.25,0,0,1,.17,1.5C423.44,186.25,423.21,186.42,422.86,186.42Z"/><path d="M464.63,179.5a27.6,27.6,0,0,1-1,4,.91.91,0,0,1-.4.4A28.44,28.44,0,0,1,450,186.88,23.43,23.43,0,0,1,434,181a20.22,20.22,0,0,1-.35-30.17,22.89,22.89,0,0,1,16.1-6.06,29.78,29.78,0,0,1,13.5,3.06,1,1,0,0,1,.57.8c.18,1.73.41,4.22.81,7.45l-.06.29c-.05.17-.52.28-1.32.4-.41.06-.7-.17-.81-.64a11.4,11.4,0,0,0-3.75-6.34,12,12,0,0,0-8-2.6A17,17,0,0,0,433,165a19.19,19.19,0,0,0,5.31,14,18.38,18.38,0,0,0,13.84,5.54,10.88,10.88,0,0,0,7.62-2.71,11.82,11.82,0,0,0,3.4-6.58c.06-.46.23-.63.58-.63,1.09,0,1.67.17,1.67.58A39.88,39.88,0,0,1,464.63,179.5Z"/><path d="M509.92,186.42h-.17c-.81,0-2,0-3.58-.17s-2.77-.17-3.58-.17-2,0-3.63.17-2.83.17-3.64.17h-.05c-.41,0-.58-.52-.58-1.61,0-.41.29-.69.86-.75s.93-.06,1.39-.06c1.44-.12,2.13-.69,2.13-1.79a5.27,5.27,0,0,0-.4-1.84L494.8,170H481.25l-3.06,9.23a7.23,7.23,0,0,0-.52,2.36c0,1.27.75,2.08,2.25,2.31.87.12,1.79.23,2.65.41.12.05.18.57.18,1.44,0,.46-.23.63-.58.63h-.12c-.75,0-1.78,0-3.17-.17s-2.48-.17-3.17-.17-1.79,0-3.17.17-2.49.17-3.18.17h-.11c-.35,0-.58-.52-.58-1.61,0-.41.29-.69.81-.75s1-.06,1.44-.06c2-.17,3.29-1.38,4.1-3.63l11.65-33.58c2.25-1.33,3.4-2,3.52-2s.23.17.35.46l13.78,35.14a6.18,6.18,0,0,0,2.31,3.11,4.3,4.3,0,0,0,2.25.58c.87,0,1.33.06,1.5.23a5.17,5.17,0,0,1,.12,1.44C510.5,186.25,510.27,186.42,509.92,186.42ZM496,141a9.25,9.25,0,0,1-13.85,0,11.66,11.66,0,0,1-3-7H480c1.15,3.46,4.21,5.19,9.06,5.19s7.78-1.73,9-5.19h.86A11.6,11.6,0,0,1,496,141Zm-8.31,9.87L482,167.62h11.94Z"/></g></g></svg>